<?xml version="1.0" standalone="no"?>
<!DOCTYPE svg PUBLIC "-//W3C//DTD SVG 20010904//EN"
 "http://www.w3.org/TR/2001/REC-SVG-20010904/DTD/svg10.dtd">
<svg version="1.0" xmlns="http://www.w3.org/2000/svg"
 width="561.000000pt" height="722.000000pt" viewBox="0 0 561.000000 722.000000"
 preserveAspectRatio="xMidYMid meet">

<g transform="translate(0.000000,722.000000) scale(0.100000,-0.100000)"
fill="#000000" stroke="none">
<path d="M902 5717 l-602 -602 0 -1050 0 -1050 603 -603 602 -602 1300 0 1300
0 603 603 602 602 0 1050 0 1050 -603 603 -602 602 -1300 0 -1300 0 -603 -603z
m3800 -4 l598 -598 0 -1050 0 -1050 -598 -598 -597 -597 -1300 0 -1300 0 -597
597 -598 598 0 1050 0 1050 597 597 598 598 1300 0 1300 0 597 -597z"/>
<path d="M1495 5573 c-101 -13 -206 -60 -277 -122 -68 -60 -104 -72 -252 -80
-112 -7 -138 -12 -182 -34 -85 -43 -143 -131 -128 -193 3 -12 -3 -39 -16 -63
-11 -23 -26 -77 -32 -121 -14 -92 2 -189 48 -291 31 -68 57 -93 310 -295 176
-140 261 -195 341 -221 46 -14 55 -22 73 -59 11 -24 25 -75 32 -115 11 -67 10
-73 -8 -86 -46 -33 -119 -46 -309 -53 -148 -5 -199 -10 -230 -24 -107 -47
-162 -172 -109 -250 19 -27 106 -73 165 -85 87 -19 360 -10 483 15 17 4 26 2
23 -4 -12 -18 -123 -42 -247 -52 -148 -13 -212 -29 -266 -69 -49 -35 -74 -84
-74 -144 0 -118 122 -164 409 -154 181 6 309 30 482 87 224 75 340 139 444
247 l65 66 98 5 c72 3 129 -1 217 -17 199 -35 368 -51 612 -58 183 -5 233 -9
237 -20 9 -23 -32 -30 -229 -36 -284 -9 -388 -40 -415 -123 -26 -78 15 -176
90 -214 99 -51 178 -46 481 26 145 34 204 44 272 44 47 0 110 5 139 11 65 14
144 53 156 76 5 10 12 54 16 98 8 102 44 168 93 173 70 7 491 -108 620 -169
67 -32 107 -75 123 -130 31 -108 -95 -217 -271 -234 -102 -10 -111 -13 -107
-38 4 -30 59 -55 156 -72 100 -18 263 -19 330 -1 148 40 277 137 328 248 37
81 39 182 5 270 -68 175 -311 435 -522 559 -78 45 -172 132 -213 197 -17 27
-34 78 -47 143 -94 471 -352 840 -683 978 -134 56 -191 65 -411 65 -175 1
-211 -2 -288 -21 -170 -44 -328 -122 -441 -218 l-62 -52 -80 5 -80 4 -12 52
c-17 75 -86 204 -148 280 -97 118 -239 205 -398 246 -75 19 -245 32 -311 23z
m257 -57 c197 -39 347 -131 452 -280 102 -144 136 -254 136 -446 0 -146 -20
-276 -55 -365 -27 -68 -29 -75 -16 -75 16 0 63 122 83 218 15 69 21 137 22
234 l1 138 40 0 c103 0 179 -53 220 -155 27 -67 49 -86 38 -33 -10 55 -45 120
-85 159 -21 20 -38 39 -38 42 0 15 150 113 232 152 228 108 496 139 762 89
223 -43 412 -168 568 -377 113 -152 226 -420 273 -648 27 -130 106 -223 295
-347 82 -54 149 -109 231 -191 122 -123 181 -200 232 -309 27 -57 32 -78 32
-142 0 -62 -5 -84 -28 -129 -53 -100 -143 -170 -280 -216 -63 -21 -94 -25
-184 -25 -59 0 -138 7 -175 15 -66 14 -114 32 -105 41 2 3 43 9 91 14 106 12
180 39 234 85 103 89 90 228 -30 315 -62 45 -456 168 -595 186 -29 4 -53 10
-53 15 0 5 4 9 9 9 5 0 41 30 80 66 66 61 120 138 107 151 -3 3 -29 -20 -58
-52 -29 -32 -95 -92 -148 -134 -112 -89 -139 -134 -147 -239 -7 -84 -14 -97
-66 -123 -64 -33 -134 -49 -221 -49 -58 0 -128 -12 -265 -44 -297 -71 -370
-77 -460 -40 -29 12 -32 16 -20 30 23 28 60 37 174 43 63 3 110 10 110 16 0
15 -192 18 -240 5 -22 -7 -50 -21 -61 -32 -22 -19 -22 -19 -38 3 -9 13 -16 31
-16 40 0 28 72 49 202 59 67 6 124 12 126 15 23 23 -217 16 -288 -8 -49 -18
-60 -15 -44 11 19 30 111 53 216 55 121 2 125 20 7 27 -55 3 -77 8 -63 13 27
10 247 26 356 27 77 0 90 3 108 22 11 12 20 26 20 31 0 5 -18 36 -40 70 -63
94 -90 209 -90 385 0 211 82 338 285 438 41 20 72 41 69 45 -7 12 -124 -34
-186 -74 -72 -46 -144 -126 -176 -195 -26 -54 -27 -65 -27 -207 0 -184 14
-242 93 -397 6 -12 -355 -9 -493 3 -66 5 -194 21 -285 35 -125 19 -184 24
-244 19 l-78 -7 31 46 c54 78 81 146 81 204 0 28 -4 52 -10 52 -5 0 -10 -8
-10 -17 -1 -68 -111 -243 -220 -353 -119 -118 -322 -219 -563 -280 -257 -65
-538 -62 -642 6 -47 31 -34 39 95 55 50 6 90 16 90 20 0 12 -147 11 -189 -1
-41 -11 -45 -9 -38 23 9 32 69 59 150 65 93 7 84 27 -11 26 -40 0 -72 1 -72 3
0 6 77 41 105 47 17 3 89 12 160 20 256 29 352 93 424 279 36 95 69 153 110
191 57 55 32 65 -27 11 -22 -19 -42 -32 -46 -28 -3 3 -6 40 -6 82 0 58 -6 91
-25 136 -15 37 -21 61 -14 64 5 1 29 17 52 35 113 86 138 223 50 282 -17 11
-71 29 -119 38 -49 10 -112 27 -142 38 -48 18 -59 28 -98 88 -24 38 -44 71
-44 73 0 2 12 7 28 10 15 3 43 16 62 29 34 24 35 25 33 91 -3 150 -85 220
-201 172 -44 -19 -122 -92 -122 -115 0 -9 11 -38 24 -63 23 -46 23 -47 6 -97
-31 -90 -59 -93 -84 -8 -20 69 -80 137 -150 173 -66 34 -92 77 -59 100 55 39
51 183 -8 246 -25 27 -34 31 -64 26 -47 -8 -44 8 8 34 34 18 67 24 177 29 153
8 188 19 258 81 55 48 122 84 195 104 68 18 227 19 319 1z m-1012 -275 c0 -5
-7 -25 -15 -44 -8 -20 -15 -49 -15 -64 0 -22 -2 -25 -10 -13 -14 22 -12 58 6
96 15 32 34 46 34 25z m81 -11 c48 -26 73 -160 36 -197 -17 -17 -19 -17 -54 2
-20 11 -45 32 -57 47 -19 27 -19 29 -2 83 9 30 25 59 34 64 21 13 20 13 43 1z
m-133 -192 c6 -24 16 -83 22 -133 15 -126 34 -184 75 -232 46 -54 107 -83 173
-83 56 0 57 -1 41 -32 -9 -17 -8 -19 8 -16 20 4 43 61 35 90 -5 21 -27 19 -27
-3 0 -19 -59 -24 -107 -10 -48 15 -92 52 -124 106 -20 35 -28 69 -40 176 -8
74 -17 143 -20 153 -4 13 6 7 29 -17 20 -19 45 -38 57 -42 12 -4 20 -15 20
-29 0 -31 34 -73 79 -95 47 -25 113 -96 129 -141 25 -66 38 -85 66 -95 24 -8
31 -6 48 14 10 14 24 44 31 68 12 46 18 51 37 29 6 -8 27 -20 46 -26 28 -10
40 -24 75 -91 23 -44 53 -88 68 -98 28 -20 147 -61 237 -81 74 -16 98 -41 91
-97 -15 -132 -167 -213 -345 -183 -137 23 -256 96 -539 333 -139 116 -168 153
-200 259 -20 66 -22 207 -4 271 7 26 17 47 21 47 4 0 12 -19 18 -42z m690 -71
c24 -26 46 -82 55 -144 6 -38 4 -43 -21 -62 -61 -43 -131 -39 -187 11 -29 25
-35 37 -35 70 0 109 125 193 188 125z m-206 -82 c-7 -25 -9 -26 -15 -11 -4 10
-2 25 4 33 16 19 20 12 11 -22z m446 -807 c12 -36 23 -104 25 -158 5 -93 4
-97 -35 -197 -23 -57 -44 -103 -48 -103 -13 0 -68 92 -85 140 -9 25 -20 91
-26 148 -5 57 -18 127 -29 155 -11 29 -20 55 -20 58 0 3 24 4 53 2 40 -3 130
7 144 16 1 1 10 -27 21 -61z m-189 -273 c15 -66 52 -139 93 -181 l29 -31 -26
-21 c-78 -62 -491 -92 -641 -47 -50 15 -104 48 -104 65 0 17 71 40 125 40 63
0 66 15 6 25 -36 6 -76 -1 -124 -20 -16 -7 -18 -3 -15 21 4 36 65 72 137 81
81 9 62 27 -21 20 -67 -6 -70 -5 -49 10 48 33 112 43 261 42 139 -1 242 14
290 42 24 14 26 12 39 -46z"/>
<path d="M1833 4615 c-51 -26 -80 -51 -71 -60 3 -3 31 8 63 25 73 39 131 40
173 5 40 -34 56 -76 49 -132 -7 -67 -39 -93 -115 -93 -70 0 -58 -20 16 -28 46
-4 53 -2 86 29 69 63 67 166 -4 240 -34 36 -41 39 -91 39 -39 0 -70 -8 -106
-25z"/>
<path d="M1875 4543 c-11 -3 -32 -14 -47 -25 -35 -24 -36 -61 -4 -93 46 -46
103 -45 149 1 32 32 35 74 8 98 -20 18 -74 28 -106 19z m80 -36 c40 -30 -22
-104 -75 -90 -25 7 -60 41 -60 58 0 35 98 58 135 32z"/>
<path d="M1330 4919 c-9 -16 -19 -20 -41 -17 -54 8 -64 -58 -17 -102 63 -58
159 24 118 100 -6 11 -19 24 -30 30 -15 8 -21 6 -30 -11z"/>
<path d="M406 1473 c-3 -10 -17 -81 -31 -158 -14 -77 -28 -148 -31 -158 -5
-16 0 -18 32 -15 38 3 39 4 49 58 l10 55 76 5 c89 7 124 25 146 78 22 53 2
110 -47 134 -50 26 -196 26 -204 1z m172 -55 c7 -7 12 -26 12 -43 0 -44 -16
-55 -83 -55 l-59 0 6 38 c13 72 14 72 65 72 26 0 52 -5 59 -12z"/>
<path d="M787 1448 c-51 -90 -125 -225 -146 -265 l-21 -43 35 0 c32 0 37 4 57
45 l22 45 67 0 67 0 6 -45 c7 -43 9 -45 42 -45 19 0 34 3 34 8 0 4 -12 82 -27
175 l-27 167 -43 0 c-39 0 -44 -3 -66 -42z m68 -110 l6 -58 -45 0 c-25 0 -46
2 -46 5 0 2 14 34 32 70 36 72 42 70 53 -17z"/>
<path d="M1037 1338 c-16 -84 -31 -163 -34 -175 -5 -21 -1 -23 30 -23 39 0 43
6 53 80 l7 51 45 -3 46 -3 25 -62 c25 -61 27 -63 64 -63 20 0 37 2 37 5 0 3
-13 35 -29 70 l-30 65 34 14 c67 28 83 116 29 167 -23 22 -35 24 -137 27
l-112 3 -28 -153z m221 80 c7 -7 12 -24 12 -38 0 -41 -18 -50 -93 -50 l-69 0
7 43 c4 23 9 45 12 50 7 12 118 8 131 -5z"/>
<path d="M1485 1474 c-71 -37 -107 -98 -108 -186 0 -68 19 -103 74 -130 61
-32 152 -17 206 34 29 27 29 42 1 55 -19 9 -29 5 -56 -18 -41 -36 -101 -40
-132 -9 -43 43 -18 163 42 200 46 28 83 26 116 -7 39 -40 91 -28 77 17 -17 54
-149 81 -220 44z"/>
<path d="M1837 1470 c-58 -32 -91 -90 -95 -169 -2 -52 1 -73 16 -97 50 -79
190 -85 271 -11 37 34 61 95 61 160 0 51 -3 61 -34 94 -33 36 -37 38 -108 40
-58 3 -81 -1 -111 -17z m137 -41 c59 -27 59 -138 1 -196 -28 -28 -40 -33 -78
-33 -37 0 -49 5 -66 26 -42 54 -12 172 51 199 41 17 60 18 92 4z"/>
<path d="M2286 1338 c-15 -84 -30 -163 -33 -175 -5 -21 -1 -23 30 -23 38 0 42
5 52 74 l7 46 84 0 c66 0 84 3 84 14 0 8 3 21 6 30 5 14 -5 16 -75 16 -90 0
-88 -1 -72 75 6 30 6 30 90 35 82 5 85 6 92 33 l7 27 -122 0 -122 0 -28 -152z"/>
<path d="M2677 1448 c-51 -90 -125 -225 -146 -265 l-21 -43 35 0 c32 0 37 4
57 45 l22 45 67 0 67 0 6 -45 c7 -43 9 -45 42 -45 19 0 34 3 34 8 0 4 -12 82
-27 175 l-27 167 -43 0 c-39 0 -44 -3 -66 -42z m68 -110 l6 -58 -45 0 c-25 0
-46 2 -46 5 0 2 14 34 32 70 36 72 42 70 53 -17z"/>
<path d="M2945 1468 c-44 -190 -45 -246 -7 -288 55 -62 197 -48 241 23 10 18
29 82 41 142 12 61 24 118 27 128 4 16 -1 18 -33 15 l-38 -3 -17 -85 c-9 -47
-20 -102 -23 -123 -9 -51 -37 -77 -82 -77 -81 0 -86 18 -54 182 11 57 20 104
20 106 0 1 -16 2 -35 2 -28 0 -36 -4 -40 -22z"/>
<path d="M3287 1338 c-16 -84 -31 -163 -34 -176 -5 -21 -3 -23 28 -20 l33 3
26 135 27 135 43 -138 44 -138 45 3 45 3 28 145 c15 80 29 157 32 173 5 25 3
27 -27 27 l-33 0 -24 -135 c-13 -74 -27 -132 -30 -129 -3 3 -23 62 -45 132
l-41 127 -44 3 -45 3 -28 -153z"/>
<path d="M3646 1338 c-15 -84 -30 -163 -33 -175 -5 -21 -1 -23 31 -23 29 0 37
4 40 23 3 12 17 83 31 157 14 74 27 143 29 153 3 14 -3 17 -33 17 l-37 0 -28
-152z"/>
<path d="M3844 1474 c-32 -16 -54 -50 -54 -85 0 -33 51 -75 113 -93 68 -20 86
-43 58 -77 -25 -32 -106 -32 -132 -1 -21 26 -79 31 -79 7 0 -48 58 -85 134
-85 115 0 182 61 154 140 -12 34 -40 54 -99 70 -43 11 -79 35 -79 51 0 40 98
54 124 18 12 -18 21 -20 50 -15 33 6 35 8 24 32 -7 14 -24 32 -39 40 -37 18
-136 18 -175 -2z"/>
<path d="M4116 1474 c-14 -38 -7 -44 49 -44 52 0 55 -1 50 -22 -3 -13 -16 -78
-29 -145 l-23 -123 37 0 36 0 17 93 c9 51 21 116 27 145 l12 52 53 0 c39 0 54
4 59 16 16 43 13 44 -138 44 -122 0 -145 -2 -150 -16z"/>
<path d="M4421 1326 c-17 -90 -31 -169 -31 -175 0 -6 15 -11 34 -11 l34 0 31
163 c17 89 31 168 31 175 0 7 -13 12 -34 12 l-33 0 -32 -164z"/>
<path d="M4660 1479 c-32 -13 -78 -56 -96 -91 -7 -14 -16 -50 -19 -80 -10 -91
40 -155 129 -165 57 -7 127 18 156 54 25 32 25 38 -2 50 -19 9 -29 5 -56 -18
-41 -36 -101 -40 -133 -8 -18 18 -21 30 -17 85 3 56 8 69 34 95 21 21 44 32
72 36 37 5 45 2 69 -24 21 -22 34 -28 52 -23 37 9 36 27 -2 65 -33 33 -39 35
-98 34 -35 0 -75 -5 -89 -10z"/>
<path d="M5014 1476 c-44 -19 -91 -81 -104 -138 -30 -124 45 -210 172 -195 64
8 112 38 143 92 52 89 40 194 -27 235 -39 24 -136 27 -184 6z m141 -61 c19
-18 25 -35 25 -69 0 -91 -44 -146 -116 -146 -62 0 -84 24 -84 94 0 114 108
189 175 121z"/>
<path d="M1601 838 c-6 -29 -21 -108 -34 -175 l-24 -123 144 0 143 0 0 30 0
30 -101 0 -101 0 6 31 c3 17 6 35 6 40 0 5 41 9 90 9 88 0 91 1 100 26 6 14
10 27 10 30 0 2 -40 4 -90 4 -87 0 -90 1 -90 23 1 65 4 67 110 67 93 0 98 1
104 23 3 12 6 25 6 30 0 4 -60 7 -134 7 l-135 0 -10 -52z"/>
<path d="M1932 843 c-27 -126 -36 -204 -26 -229 16 -48 57 -69 132 -69 114 0
145 38 177 211 9 49 19 99 22 112 5 20 1 22 -30 22 -41 0 -39 4 -62 -125 -25
-145 -39 -165 -109 -165 -37 0 -66 21 -66 48 0 9 9 64 20 122 11 58 20 108 20
112 0 5 -15 8 -34 8 -33 0 -35 -2 -44 -47z"/>
<path d="M2360 871 c-78 -42 -120 -139 -98 -229 19 -76 97 -114 200 -98 32 5
90 28 106 41 1 1 9 34 16 74 l14 72 -77 -3 c-70 -3 -76 -5 -79 -25 -3 -21 1
-23 38 -23 41 0 42 -1 35 -27 -10 -41 -19 -46 -83 -51 -55 -4 -60 -2 -80 23
-30 38 -30 110 1 156 46 69 157 75 179 9 4 -12 68 6 68 19 0 15 -33 52 -60 66
-41 21 -137 19 -180 -4z"/>
<path d="M2729 758 c-39 -73 -83 -152 -96 -175 l-25 -43 36 0 c31 0 38 5 62
45 l26 45 63 0 c67 0 74 -7 75 -67 0 -20 5 -23 35 -23 21 0 35 5 35 13 0 6
-12 85 -26 175 l-27 162 -43 0 -42 0 -73 -132z m120 -50 c1 -27 -1 -28 -44
-28 -25 0 -45 3 -45 6 0 3 17 36 37 72 l38 67 7 -45 c3 -25 7 -57 7 -72z"/>
<path d="M3027 738 c-16 -84 -31 -163 -34 -176 -5 -21 -3 -23 28 -20 l33 3 26
135 27 135 43 -138 44 -138 45 3 45 3 28 145 c15 80 29 157 32 173 5 25 3 27
-27 27 l-33 0 -24 -135 c-13 -74 -27 -132 -30 -129 -3 3 -23 62 -45 132 l-41
127 -44 3 -45 3 -28 -153z"/>
<path d="M3416 873 c-3 -10 -17 -81 -31 -158 -14 -77 -28 -148 -31 -157 -5
-17 6 -18 134 -18 118 0 141 2 146 16 16 41 10 44 -94 44 -108 0 -109 1 -94
57 6 21 13 22 98 25 l91 3 3 28 3 27 -89 0 c-98 0 -92 -5 -77 63 l5 27 95 0
c93 0 96 1 105 26 6 14 10 27 10 30 0 2 -60 4 -134 4 -120 0 -135 -2 -140 -17z"/>
<path d="M3815 876 c-94 -42 -142 -171 -98 -263 43 -91 192 -96 280 -11 77 74
76 220 -2 268 -38 24 -133 27 -180 6z m148 -67 c37 -46 6 -173 -49 -197 -38
-18 -89 -14 -115 7 -20 16 -24 28 -24 73 1 63 26 111 69 133 40 20 95 12 119
-16z"/>
</g>
</svg>
